<svg xmlns="http://www.w3.org/2000/svg" width="114" height="114" viewBox="0 0 114 114">
  <g id="Grupo_1072108" data-name="Grupo 1072108" transform="translate(-269 -958)">
    <circle id="Elipse_5614" data-name="Elipse 5614" cx="57" cy="57" r="57" transform="translate(269 958)" fill="#0a5e6b"/>
    <g id="Grupo_1071978" data-name="Grupo 1071978" transform="translate(291.216 978.551)">
      <g id="_x34_4_File_Extension" transform="translate(5.284 0)">
        <g id="Grupo_1072112" data-name="Grupo 1072112" transform="translate(0)">
          <path id="Trazado_838688" data-name="Trazado 838688" d="M160.908,92.508l-1.391,3.3H162.3Z" transform="translate(-144.463 -80.005)" fill="#fff"/>
          <path id="Trazado_838689" data-name="Trazado 838689" d="M106.721,16.5,92.17,1.96a.911.911,0,0,0-.518-.212H58.976a2.923,2.923,0,0,0-2.919,2.919V8.8h-1.54a4.282,4.282,0,0,0-4.276,4.276V27.251a4.282,4.282,0,0,0,4.276,4.276h1.54V68.882A2.923,2.923,0,0,0,58.976,71.8h45.038a2.918,2.918,0,0,0,2.919-2.919V17.014A.722.722,0,0,0,106.721,16.5ZM56.057,30.068h-1.54a2.817,2.817,0,0,1,0-5.634h1.54Zm49.416,38.813a1.464,1.464,0,0,1-1.459,1.459H58.976a1.464,1.464,0,0,1-1.459-1.459V24.435H83.633a2.186,2.186,0,0,0,2.189-2.189V10.986A2.191,2.191,0,0,0,83.633,8.8H57.516V4.667a1.464,1.464,0,0,1,1.459-1.459H90.923V14.832a2.918,2.918,0,0,0,2.919,2.919h11.632V68.882Zm-43.039-48.3,3.579-8.492a.729.729,0,0,1,1.345,0l3.579,8.492a.73.73,0,1,1-1.345.567l-.9-2.137H64.68l-.9,2.137a.73.73,0,0,1-1.345-.567Zm9.794.283V12.372a.73.73,0,1,1,1.459,0v8.492a.73.73,0,1,1-1.459,0Z" transform="translate(-50.241 -1.748)" fill="#fff"/>
          <path id="Trazado_838690" data-name="Trazado 838690" d="M168.938,223.477a2.511,2.511,0,0,0-2.4,1.8H156.489a2.517,2.517,0,1,0,0,1.459h6.268a14.057,14.057,0,0,0-7.728,10.391H154.8a1.548,1.548,0,0,0-1.547,1.547v1.511a1.548,1.548,0,0,0,1.547,1.547h1.518a1.548,1.548,0,0,0,1.547-1.547V238.67a1.552,1.552,0,0,0-1.357-1.532,12.592,12.592,0,0,1,10.121-10.15,2.135,2.135,0,0,0,.314.547l-6.75,11.486a1.878,1.878,0,0,0,0,1.934l3.517,5.984a2.062,2.062,0,0,0-1.883,2.043v3.962a.732.732,0,0,0,.73.73h12.763a.732.732,0,0,0,.73-.73v-3.962a2.055,2.055,0,0,0-1.875-2.043l3.51-5.984a1.878,1.878,0,0,0,0-1.934l-6.743-11.493a2.192,2.192,0,0,0,.307-.54,12.6,12.6,0,0,1,10.136,10.187,1.55,1.55,0,0,0-1.16,1.5v1.511a1.548,1.548,0,0,0,1.547,1.547h1.518a1.548,1.548,0,0,0,1.547-1.547V238.67a1.548,1.548,0,0,0-1.547-1.547h-.438a14.057,14.057,0,0,0-7.728-10.391h6.268a2.525,2.525,0,1,0,0-1.459H171.339A2.518,2.518,0,0,0,168.938,223.477Zm7.487,16.287a.442.442,0,0,1,0,.445l-3.933,6.706h-7.107l-3.94-6.706a.442.442,0,0,1,0-.445l6.692-11.384.073.022v7.925a2.128,2.128,0,1,0,1.459-.007V228.4a.217.217,0,0,0,.073-.022Z" transform="translate(-137.612 -192.931)" fill="#fff"/>
        </g>
      </g>
    </g>
  </g>
</svg>
