<svg xmlns="http://www.w3.org/2000/svg" width="114" height="114" viewBox="0 0 114 114">
  <g id="Grupo_1072110" data-name="Grupo 1072110" transform="translate(-269 -958)">
    <g id="Grupo_1072134" data-name="Grupo 1072134">
      <circle id="Elipse_5614" data-name="Elipse 5614" cx="57" cy="57" r="57" transform="translate(269 958)" fill="#0a5e6b"/>
      <g id="XMLID_144_" transform="translate(285.12 979.902)">
        <path id="XMLID_145_" d="M60.009,34.286V11.418a1.428,1.428,0,0,0-.417-1.006l-10-10A1.425,1.425,0,0,0,48.591,0H15.747a5.713,5.713,0,0,0-5.706,5.706v49.98a5.713,5.713,0,0,0,5.706,5.706H43.128a19.271,19.271,0,1,0,16.88-27.105Zm-10-29.431L55.153,10h-5.14ZM18.6,44.268a1.422,1.422,0,0,0,0,2.844H42.562a19.13,19.13,0,0,0-.986,4.3H18.6a1.422,1.422,0,0,0,0,2.844H41.471a19.209,19.209,0,0,0,.646,4.3H15.747a2.865,2.865,0,0,1-2.862-2.862V5.706a2.865,2.865,0,0,1,2.862-2.862H47.168v8.574a1.422,1.422,0,0,0,1.422,1.422h8.574V34.6a19.15,19.15,0,0,0-6.521,2.524H18.6a1.422,1.422,0,0,0,0,2.844H47.059a19.389,19.389,0,0,0-3.219,4.3H18.6Zm42.126,25.7A16.428,16.428,0,1,1,77.156,53.544,16.446,16.446,0,0,1,60.729,69.971Z" transform="translate(0 0)" fill="#fff"/>
        <path id="XMLID_150_" d="M61.658,55.223A1.423,1.423,0,0,0,63,54.284l.675-1.867H68.21l.68,1.869a1.422,1.422,0,1,0,2.673-.972l-4.038-11.1-.012-.031a1.7,1.7,0,0,0-3.117-.127L60.321,53.316A1.424,1.424,0,0,0,61.658,55.223Zm4.276-9.062,1.241,3.412H64.7Z" transform="translate(-43.055 -35.242)" fill="#fff"/>
        <path id="XMLID_153_" d="M172.116,63.089h7.14a1.422,1.422,0,0,0,0-2.844h-7.14a1.422,1.422,0,0,0,0,2.844Z" transform="translate(-137.805 -51.677)" fill="#fff"/>
        <path id="XMLID_154_" d="M172.116,113.293h17.136a1.422,1.422,0,1,0,0-2.844H172.116a1.422,1.422,0,0,0,0,2.844Z" transform="translate(-137.805 -94.741)" fill="#fff"/>
        <path id="XMLID_155_" d="M61.667,163.5H94.511a1.422,1.422,0,0,0,0-2.844H61.667a1.422,1.422,0,0,0,0,2.844Z" transform="translate(-43.064 -137.805)" fill="#fff"/>
        <path id="XMLID_156_" d="M61.667,213.7H94.511a1.422,1.422,0,1,0,0-2.844H61.667a1.422,1.422,0,0,0,0,2.844Z" transform="translate(-43.064 -180.869)" fill="#fff"/>
        <path id="XMLID_157_" d="M308.6,320.757l-12.121,12.121-5.053-5.053a1.422,1.422,0,1,0-2.011,2.011l6.059,6.058a1.423,1.423,0,0,0,2.011,0l13.127-13.127a1.422,1.422,0,1,0-2.012-2.011Z" transform="translate(-239.286 -274.782)" fill="#fff"/>
      </g>
    </g>
  </g>
</svg>
