<svg xmlns="http://www.w3.org/2000/svg" xmlns:xlink="http://www.w3.org/1999/xlink" width="400" height="518" viewBox="0 0 400 518">
  <defs>
    <clipPath id="clip-path">
      <rect id="Rectángulo_377629" data-name="Rectángulo 377629" width="400" height="518" transform="translate(1020 1017)" fill="#fff" stroke="#707070" stroke-width="1"/>
    </clipPath>
    <clipPath id="clip-path-2">
      <rect id="Rectángulo_377628" data-name="Rectángulo 377628" width="578.363" height="516.703" transform="translate(0 0)" fill="#faffd7"/>
    </clipPath>
    <clipPath id="clip-path-3">
      <rect id="Rectángulo_377695" data-name="Rectángulo 377695" width="519.059" height="517.975" fill="none"/>
    </clipPath>
    <clipPath id="clip-path-6">
      <rect id="Rectángulo_377680" data-name="Rectángulo 377680" width="16.926" height="34.956" fill="none"/>
    </clipPath>
    <clipPath id="clip-path-7">
      <rect id="Rectángulo_377689" data-name="Rectángulo 377689" width="519.059" height="517.975" transform="translate(-68 7)" fill="none"/>
    </clipPath>
    <clipPath id="clip-path-8">
      <rect id="Rectángulo_377684" data-name="Rectángulo 377684" width="35.918" height="22.344" fill="none"/>
    </clipPath>
    <clipPath id="clip-path-9">
      <rect id="Rectángulo_377687" data-name="Rectángulo 377687" width="70.862" height="338.959" fill="#b40e0e"/>
    </clipPath>
    <clipPath id="clip-path-11">
      <rect id="Rectángulo_377690" data-name="Rectángulo 377690" width="94.638" height="102.281" fill="none"/>
    </clipPath>
    <clipPath id="clip-path-12">
      <rect id="Rectángulo_377691" data-name="Rectángulo 377691" width="8.661" height="6.129" fill="none"/>
    </clipPath>
    <clipPath id="clip-path-13">
      <rect id="Rectángulo_377692" data-name="Rectángulo 377692" width="39.489" height="4.17" fill="none"/>
    </clipPath>
    <clipPath id="clip-path-14">
      <rect id="Rectángulo_377693" data-name="Rectángulo 377693" width="23.769" height="2.808" fill="none"/>
    </clipPath>
  </defs>
  <g id="Grupo_1072021" data-name="Grupo 1072021" transform="translate(-1020 -1017)">
    <g id="Enmascarar_grupo_87" data-name="Enmascarar grupo 87" clip-path="url(#clip-path)">
      <g id="Grupo_1072014" data-name="Grupo 1072014" transform="translate(1039 1017.295)">
        <g id="Grupo_1072013" data-name="Grupo 1072013" transform="translate(0 0.002)" clip-path="url(#clip-path-2)">
          <path id="Trazado_838415" data-name="Trazado 838415" d="M577.188,377.923c-6.7,43.93-33.083,91.133-72.9,110.824q-.831.41-1.679.81c-28.96,13.644-75.009,18.506-114.661,17.432a308.3,308.3,0,0,1-41.931-3.768c-15-2.532-29.51-1.959-44.3-.045-6.227.8-12.505,1.848-18.89,3-34.487,6.216-72.088,15.545-121.859,7.251q-7.489-1.246-15.359-3.048c-19.758-4.548-41.383-11.907-65.362-23.195-33.165-15.611-63.707-40.4-75.831-75.02C1.316,403.3-.654,393.885.2,384.535,1.894,366.026,14.12,350.5,24.617,335.16a330.211,330.211,0,0,0,33.126-61.509c4.865-11.912,9.1-24.53,8.2-37.369-1.957-28.049-26.872-48.385-38.875-73.806A84.249,84.249,0,0,1,86.473,43.928c54.306-11.009,111.617,32.042,163.484,12.533C276.87,46.34,304.992,26.883,331.18,15,443.127-35.8,535.037,52.912,530.6,124.855c-3.67,59.523-22.633,61.215-49.226,109.528a36.2,36.2,0,0,0-4.29,21.668c1.9,15.215,16.517,25.6,30.935,30.8s30.188,7.383,43.02,15.77c23.507,15.368,30.382,47.527,26.148,75.3" transform="translate(0.001 -0.002)" fill="#faffd7"/>
        </g>
      </g>
      <g id="Grupo_1072096" data-name="Grupo 1072096" transform="translate(1000 1016.025)">
        <g id="Grupo_1072095" data-name="Grupo 1072095" clip-path="url(#clip-path-3)">
          <g id="Grupo_1072067" data-name="Grupo 1072067">
            <g id="Grupo_1072066" data-name="Grupo 1072066" clip-path="url(#clip-path-3)">
              <path id="Trazado_838593" data-name="Trazado 838593" d="M519.06,412.576c0,.18-116.205.326-259.518.326C116.18,412.9,0,412.756,0,412.576s116.179-.326,259.541-.326c143.313,0,259.518.145,259.518.326" transform="translate(0 104.541)" fill="#263238"/>
            </g>
          </g>
          <g id="Grupo_1072072" data-name="Grupo 1072072">
            <g id="Grupo_1072071" data-name="Grupo 1072071" clip-path="url(#clip-path-3)">
              <path id="Trazado_838594" data-name="Trazado 838594" d="M331.224,380.39c-2.22,3.172-6.536,2.121-8.537.186s-2.847-4.741-3.617-7.416c-1.759-6.112-3.533-12.526-2.224-18.75a10.416,10.416,0,0,1,2.394-5.1A5.443,5.443,0,0,1,324.4,347.6c2.175.575,3.528,2.707,4.505,4.734a44.7,44.7,0,0,1,4.416,19.181c.011,3.089-.353,6.329-2.1,8.88" transform="translate(41.358 88.11)" fill="#1fd27a"/>
              <g id="Grupo_1072070" data-name="Grupo 1072070" transform="translate(357.753 435.565)" opacity="0.2">
                <g id="Grupo_1072069" data-name="Grupo 1072069">
                  <g id="Grupo_1072068" data-name="Grupo 1072068" clip-path="url(#clip-path-6)">
                    <path id="Trazado_838595" data-name="Trazado 838595" d="M331.224,380.39c-2.22,3.172-6.536,2.121-8.537.186s-2.847-4.741-3.617-7.416c-1.759-6.112-3.533-12.526-2.224-18.75a10.416,10.416,0,0,1,2.394-5.1A5.443,5.443,0,0,1,324.4,347.6c2.175.575,3.528,2.707,4.505,4.734a44.7,44.7,0,0,1,4.416,19.181c.011,3.089-.353,6.329-2.1,8.88" transform="translate(-316.394 -347.456)"/>
                  </g>
                </g>
              </g>
              <path id="Trazado_838596" data-name="Trazado 838596" d="M325.442,386.9a19.241,19.241,0,0,0-11.938-1.45c-2.166.357-4.424,1.005-5.9,2.633s-1.754,4.489-.061,5.887a5.648,5.648,0,0,0,3.718.944c3.157-.036,6.658-.593,9.179,1.306,1.438,1.083,2.4,2.884,4.116,3.417a4.066,4.066,0,0,0,4.474-1.991,6.952,6.952,0,0,0,.505-5.128,7.829,7.829,0,0,0-4.1-5.617" transform="translate(39.66 97.66)" fill="#1fd27a"/>
              <path id="Trazado_838597" data-name="Trazado 838597" d="M333.561,382.877a11.539,11.539,0,0,1-1.8-10.619,20.46,20.46,0,0,1,6.289-9.122,33.85,33.85,0,0,1,11.262-6.645,12.017,12.017,0,0,1,5.065-.861,5.316,5.316,0,0,1,4.251,2.572c1.185,2.26.049,5-1.181,7.239a85.851,85.851,0,0,1-7.4,11.265c-2.218,2.858-4.757,5.677-8.136,6.969s-6.89,1.141-8.681-1.2" transform="translate(45.958 90.174)" fill="#1fd27a"/>
              <path id="Trazado_838598" data-name="Trazado 838598" d="M331.7,417.788a6.814,6.814,0,0,1-.2-1.442c-.1-1.048-.232-2.366-.384-3.931a57.349,57.349,0,0,0-.885-5.769,44.566,44.566,0,0,0-2.1-6.808,25.16,25.16,0,0,0-3.475-6.16,13.009,13.009,0,0,0-4.4-3.654,12.283,12.283,0,0,0-3.7-1.152,6.793,6.793,0,0,1-1.433-.208,6.723,6.723,0,0,1,1.459-.023,11.2,11.2,0,0,1,3.859,1.005,12.95,12.95,0,0,1,4.637,3.686,24.514,24.514,0,0,1,3.6,6.283,41.448,41.448,0,0,1,2.082,6.92,49.023,49.023,0,0,1,.767,5.842c.124,1.67.172,3.022.194,3.956a6.933,6.933,0,0,1-.029,1.455" transform="translate(41.876 98.551)" fill="#263238"/>
              <path id="Trazado_838599" data-name="Trazado 838599" d="M329.617,422.625a2.941,2.941,0,0,1-.039-.669c0-.5,0-1.134.005-1.912.005-1.658,0-4.06-.085-7.025-.147-5.931-.657-14.118-1.643-23.116s-2.31-17.1-3.51-22.907c-.283-1.455-.569-2.767-.839-3.914s-.475-2.141-.687-2.943c-.182-.755-.33-1.37-.446-1.858a2.911,2.911,0,0,1-.118-.661,2.779,2.779,0,0,1,.233.627c.145.481.33,1.088.555,1.833.246.795.5,1.78.786,2.925s.616,2.451.926,3.9a216.977,216.977,0,0,1,3.691,22.929c.988,9.017,1.433,17.228,1.473,23.173.035,2.974-.029,5.379-.1,7.04-.048.776-.086,1.409-.117,1.91a2.886,2.886,0,0,1-.081.664" transform="translate(43.683 90.688)" fill="#263238"/>
              <path id="Trazado_838600" data-name="Trazado 838600" d="M328.1,405.81a12.737,12.737,0,0,1,.014-2c.074-1.284.251-3.139.612-5.412a71.477,71.477,0,0,1,1.76-7.885,69.836,69.836,0,0,1,3.3-9.329,49.694,49.694,0,0,1,9.683-15.076,24.4,24.4,0,0,1,2.278-2.117c.35-.3.658-.59.973-.824l.884-.609a12.932,12.932,0,0,1,1.681-1.077,59.829,59.829,0,0,0-5.512,4.918,52.337,52.337,0,0,0-9.439,15.022,74.116,74.116,0,0,0-3.316,9.244,80.041,80.041,0,0,0-1.873,7.8c-.412,2.25-.652,4.087-.8,5.359a12.7,12.7,0,0,1-.244,1.978" transform="translate(45.16 91.667)" fill="#263238"/>
            </g>
          </g>
          <g id="Grupo_1072080" data-name="Grupo 1072080">
            <g id="Grupo_1072079" data-name="Grupo 1072079" clip-path="url(#clip-path-7)">
              <path id="Trazado_838601" data-name="Trazado 838601" d="M384.622,405.964l-271.211-34.49L160.651,0,438.594,35.346a5.547,5.547,0,0,1,4.8,6.2L398.413,395.285a12.333,12.333,0,0,1-13.791,10.679" transform="translate(-39.24 7)" fill="#455a64"/>
              <rect id="Rectángulo_377682" data-name="Rectángulo 377682" width="18.213" height="33.891" transform="translate(379.114 122.668) rotate(-82.752)" fill="#e8505b"/>
              <g id="Grupo_1072075" data-name="Grupo 1072075" transform="translate(379.114 104.601)" opacity="0.3">
                <g id="Grupo_1072074" data-name="Grupo 1072074">
                  <g id="Grupo_1072073" data-name="Grupo 1072073" clip-path="url(#clip-path-8)">
                    <rect id="Rectángulo_377683" data-name="Rectángulo 377683" width="18.213" height="33.891" transform="translate(-0.001 18.068) rotate(-82.752)"/>
                  </g>
                </g>
              </g>
              <rect id="Rectángulo_377685" data-name="Rectángulo 377685" width="356.088" height="264.387" transform="translate(86.907 371.758) rotate(-82.752)" fill="#e0e0e0"/>
              <rect id="Rectángulo_377686" data-name="Rectángulo 377686" width="356.088" height="264.387" transform="translate(75.761 365.962) rotate(-82.752)" fill="#fafafa"/>
              <line id="Línea_139" data-name="Línea 139" x2="261.354" y2="33.236" transform="translate(124.666 47.68)" fill="none" stroke="#e0e0e0" stroke-miterlimit="10" stroke-width="1"/>
              <line id="Línea_140" data-name="Línea 140" x2="261.354" y2="33.236" transform="translate(124.084 65.455)" fill="none" stroke="#e0e0e0" stroke-miterlimit="10" stroke-width="1"/>
              <line id="Línea_141" data-name="Línea 141" x2="261.354" y2="33.236" transform="translate(121.85 83.02)" fill="none" stroke="#e0e0e0" stroke-miterlimit="10" stroke-width="1"/>
              <line id="Línea_142" data-name="Línea 142" x2="261.354" y2="33.236" transform="translate(119.616 100.585)" fill="none" stroke="#e0e0e0" stroke-miterlimit="10" stroke-width="1"/>
              <line id="Línea_143" data-name="Línea 143" x2="261.354" y2="33.236" transform="translate(117.383 118.149)" fill="none" stroke="#e0e0e0" stroke-miterlimit="10" stroke-width="1"/>
              <line id="Línea_144" data-name="Línea 144" x2="261.354" y2="33.236" transform="translate(115.149 135.714)" fill="none" stroke="#e0e0e0" stroke-miterlimit="10" stroke-width="1"/>
              <line id="Línea_145" data-name="Línea 145" x2="261.354" y2="33.236" transform="translate(112.915 153.279)" fill="none" stroke="#e0e0e0" stroke-miterlimit="10" stroke-width="1"/>
              <line id="Línea_146" data-name="Línea 146" x2="261.354" y2="33.236" transform="translate(110.681 170.844)" fill="none" stroke="#e0e0e0" stroke-miterlimit="10" stroke-width="1"/>
              <line id="Línea_147" data-name="Línea 147" x2="261.354" y2="33.236" transform="translate(108.448 188.409)" fill="none" stroke="#e0e0e0" stroke-miterlimit="10" stroke-width="1"/>
              <line id="Línea_148" data-name="Línea 148" x2="261.354" y2="33.236" transform="translate(106.214 205.974)" fill="none" stroke="#e0e0e0" stroke-miterlimit="10" stroke-width="1"/>
              <line id="Línea_149" data-name="Línea 149" x2="261.354" y2="33.236" transform="translate(103.98 223.538)" fill="none" stroke="#e0e0e0" stroke-miterlimit="10" stroke-width="1"/>
              <line id="Línea_150" data-name="Línea 150" x2="261.354" y2="33.236" transform="translate(101.746 241.103)" fill="none" stroke="#e0e0e0" stroke-miterlimit="10" stroke-width="1"/>
              <line id="Línea_151" data-name="Línea 151" x2="261.354" y2="33.236" transform="translate(99.513 258.668)" fill="none" stroke="#e0e0e0" stroke-miterlimit="10" stroke-width="1"/>
              <line id="Línea_152" data-name="Línea 152" x2="261.354" y2="33.236" transform="translate(97.279 276.233)" fill="#455a64"/>
              <line id="Línea_153" data-name="Línea 153" x2="261.354" y2="33.236" transform="translate(95.045 293.798)" fill="none" stroke="#e0e0e0" stroke-miterlimit="10" stroke-width="1"/>
              <line id="Línea_154" data-name="Línea 154" x2="261.354" y2="33.236" transform="translate(92.811 311.363)" fill="none" stroke="#e0e0e0" stroke-miterlimit="10" stroke-width="1"/>
              <line id="Línea_155" data-name="Línea 155" x2="261.354" y2="33.236" transform="translate(90.578 328.927)" fill="none" stroke="#e0e0e0" stroke-miterlimit="10" stroke-width="1"/>
              <line id="Línea_156" data-name="Línea 156" x2="261.354" y2="33.236" transform="translate(88.344 346.492)" fill="none" stroke="#e0e0e0" stroke-miterlimit="10" stroke-width="1"/>
              <line id="Línea_157" data-name="Línea 157" x1="44.767" y2="352.025" transform="translate(117.52 19.892)" fill="none" stroke="#e8505b" stroke-miterlimit="10" stroke-width="1"/>
              <path id="Trazado_838602" data-name="Trazado 838602" d="M170.9,23.171a5.376,5.376,0,1,1-4.655-6.011,5.376,5.376,0,0,1,4.655,6.011" transform="translate(-27.378 11.34)" fill="#455a64"/>
              <path id="Trazado_838603" data-name="Trazado 838603" d="M166.921,54.437a5.376,5.376,0,1,1-4.655-6.011,5.376,5.376,0,0,1,4.655,6.011" transform="translate(-28.387 19.269)" fill="#455a64"/>
              <path id="Trazado_838604" data-name="Trazado 838604" d="M162.945,85.7a5.376,5.376,0,1,1-4.655-6.011,5.376,5.376,0,0,1,4.655,6.011" transform="translate(-29.395 27.198)" fill="#455a64"/>
              <path id="Trazado_838605" data-name="Trazado 838605" d="M158.969,116.967a5.376,5.376,0,1,1-4.656-6.01,5.378,5.378,0,0,1,4.656,6.01" transform="translate(-30.403 35.126)" fill="#455a64"/>
              <path id="Trazado_838606" data-name="Trazado 838606" d="M154.992,148.234a5.376,5.376,0,1,1-4.655-6.011,5.376,5.376,0,0,1,4.655,6.011" transform="translate(-31.412 43.055)" fill="#455a64"/>
              <path id="Trazado_838607" data-name="Trazado 838607" d="M151.016,179.5a5.376,5.376,0,1,1-4.655-6.011,5.376,5.376,0,0,1,4.655,6.011" transform="translate(-32.42 50.983)" fill="#455a64"/>
              <path id="Trazado_838608" data-name="Trazado 838608" d="M147.04,210.766a5.376,5.376,0,1,1-4.655-6.011,5.376,5.376,0,0,1,4.655,6.011" transform="translate(-33.428 58.912)" fill="#455a64"/>
              <path id="Trazado_838609" data-name="Trazado 838609" d="M143.064,242.032a5.376,5.376,0,1,1-4.655-6.011,5.376,5.376,0,0,1,4.655,6.011" transform="translate(-34.436 66.841)" fill="#455a64"/>
              <path id="Trazado_838610" data-name="Trazado 838610" d="M139.088,273.3a5.376,5.376,0,1,1-4.655-6.011,5.376,5.376,0,0,1,4.655,6.011" transform="translate(-35.445 74.769)" fill="#455a64"/>
              <path id="Trazado_838611" data-name="Trazado 838611" d="M149.539,39.488c-.019.065-.222.063-.6-.006a9.546,9.546,0,0,1-1.616-.434,11.626,11.626,0,0,1-2.374-1.23,11.508,11.508,0,0,1-2.635-2.433,13,13,0,0,1-2.056-3.855,16.049,16.049,0,0,1-.814-4.929,11.921,11.921,0,0,1,1.122-5.53,12.292,12.292,0,0,1,4.059-4.49,14.129,14.129,0,0,1,5.575-2.226,16.951,16.951,0,0,1,5.527.005,22.447,22.447,0,0,1,8.507,3.375A30.7,30.7,0,0,1,169,21.517c1.022,1,1.512,1.63,1.425,1.727s-.756-.33-1.91-1.14a54.018,54.018,0,0,0-4.984-3.183,23.208,23.208,0,0,0-8.061-2.778,15.972,15.972,0,0,0-4.932.1,12.651,12.651,0,0,0-4.81,1.959,10.673,10.673,0,0,0-3.459,3.758,10.5,10.5,0,0,0-1.017,4.652,15.235,15.235,0,0,0,.558,4.43,12.336,12.336,0,0,0,1.622,3.523,11.613,11.613,0,0,0,2.175,2.377,14.5,14.5,0,0,0,2.041,1.415c.592.356,1.1.548,1.419.751.325.186.49.316.471.38" transform="translate(-32.638 10.583)" fill="#e8505b"/>
              <path id="Trazado_838612" data-name="Trazado 838612" d="M145.563,70.754c-.019.065-.222.061-.6-.008a9.425,9.425,0,0,1-1.616-.434,11.731,11.731,0,0,1-5.009-3.663,12.973,12.973,0,0,1-2.056-3.854,16.063,16.063,0,0,1-.814-4.93,11.915,11.915,0,0,1,1.122-5.528,12.3,12.3,0,0,1,4.059-4.492,14.147,14.147,0,0,1,5.575-2.226,17.021,17.021,0,0,1,5.527.005A22.447,22.447,0,0,1,160.262,49a30.694,30.694,0,0,1,4.762,3.785c1.022,1,1.512,1.628,1.425,1.726s-.756-.33-1.91-1.138a53.751,53.751,0,0,0-4.984-3.183,23.173,23.173,0,0,0-8.061-2.779,15.973,15.973,0,0,0-4.932.1,12.649,12.649,0,0,0-4.81,1.958,10.676,10.676,0,0,0-3.459,3.76,10.5,10.5,0,0,0-1.017,4.651,15.244,15.244,0,0,0,.558,4.431,12.328,12.328,0,0,0,1.622,3.521,11.58,11.58,0,0,0,2.175,2.377,14.5,14.5,0,0,0,2.041,1.415c.592.356,1.1.549,1.419.751.325.186.49.316.471.381" transform="translate(-33.646 18.512)" fill="#e8505b"/>
              <path id="Trazado_838613" data-name="Trazado 838613" d="M141.587,102.02c-.019.065-.222.061-.6-.008a9.425,9.425,0,0,1-1.616-.434,11.721,11.721,0,0,1-5.009-3.664,12.95,12.95,0,0,1-2.056-3.852,16.064,16.064,0,0,1-.814-4.93,11.924,11.924,0,0,1,1.122-5.53,12.3,12.3,0,0,1,4.059-4.49,14.147,14.147,0,0,1,5.575-2.226,17.021,17.021,0,0,1,5.527.005,22.447,22.447,0,0,1,8.507,3.375,30.693,30.693,0,0,1,4.762,3.785c1.022,1,1.512,1.628,1.425,1.726s-.755-.33-1.91-1.138a53.752,53.752,0,0,0-4.984-3.183,23.173,23.173,0,0,0-8.061-2.779,15.973,15.973,0,0,0-4.932.1,12.648,12.648,0,0,0-4.81,1.958,10.676,10.676,0,0,0-3.459,3.76,10.5,10.5,0,0,0-1.017,4.651,15.244,15.244,0,0,0,.558,4.431,12.328,12.328,0,0,0,1.622,3.521,11.58,11.58,0,0,0,2.175,2.377,14.5,14.5,0,0,0,2.041,1.415c.592.356,1.1.549,1.419.751.325.186.49.316.471.381" transform="translate(-34.654 26.44)" fill="#e8505b"/>
              <path id="Trazado_838614" data-name="Trazado 838614" d="M137.611,133.286c-.019.065-.222.061-.6-.008a9.427,9.427,0,0,1-1.616-.434,11.731,11.731,0,0,1-5.009-3.663,12.973,12.973,0,0,1-2.056-3.854,16.064,16.064,0,0,1-.814-4.93,11.924,11.924,0,0,1,1.122-5.53,12.3,12.3,0,0,1,4.059-4.49,14.147,14.147,0,0,1,5.575-2.226,17.02,17.02,0,0,1,5.527.005,22.447,22.447,0,0,1,8.507,3.375,30.692,30.692,0,0,1,4.762,3.785c1.022,1,1.512,1.628,1.425,1.726s-.755-.33-1.91-1.138a53.749,53.749,0,0,0-4.984-3.183,23.174,23.174,0,0,0-8.061-2.779,15.973,15.973,0,0,0-4.932.1A12.649,12.649,0,0,0,133.8,112a10.688,10.688,0,0,0-3.459,3.76,10.5,10.5,0,0,0-1.017,4.651,15.245,15.245,0,0,0,.558,4.431,12.327,12.327,0,0,0,1.622,3.521,11.58,11.58,0,0,0,2.175,2.377,14.392,14.392,0,0,0,2.041,1.415c.593.356,1.1.549,1.419.751.325.186.49.316.471.381" transform="translate(-35.663 34.369)" fill="#e8505b"/>
              <path id="Trazado_838615" data-name="Trazado 838615" d="M133.635,164.551c-.019.065-.222.061-.6-.008a9.423,9.423,0,0,1-1.616-.434,11.731,11.731,0,0,1-5.009-3.663,12.957,12.957,0,0,1-2.056-3.854,16.064,16.064,0,0,1-.814-4.93,11.923,11.923,0,0,1,1.122-5.53,12.3,12.3,0,0,1,4.059-4.49,14.147,14.147,0,0,1,5.575-2.226,17.02,17.02,0,0,1,5.527.005,22.447,22.447,0,0,1,8.507,3.375,30.692,30.692,0,0,1,4.762,3.785c1.022,1,1.512,1.628,1.425,1.726s-.755-.33-1.91-1.138a53.792,53.792,0,0,0-4.984-3.182,23.148,23.148,0,0,0-8.061-2.78,15.972,15.972,0,0,0-4.932.1,12.648,12.648,0,0,0-4.81,1.958,10.688,10.688,0,0,0-3.459,3.759,10.5,10.5,0,0,0-1.017,4.651,15.245,15.245,0,0,0,.558,4.431,12.328,12.328,0,0,0,1.622,3.521A11.58,11.58,0,0,0,129.7,162a14.5,14.5,0,0,0,2.041,1.415c.592.356,1.1.549,1.419.751.325.186.49.316.471.381" transform="translate(-36.671 42.297)" fill="#e8505b"/>
              <path id="Trazado_838616" data-name="Trazado 838616" d="M129.659,195.817c-.019.065-.222.061-.6-.008a9.424,9.424,0,0,1-1.616-.434,11.721,11.721,0,0,1-5.009-3.664,12.95,12.95,0,0,1-2.056-3.852,16.064,16.064,0,0,1-.814-4.93,11.924,11.924,0,0,1,1.122-5.53,12.3,12.3,0,0,1,4.059-4.49,14.147,14.147,0,0,1,5.575-2.226,17.021,17.021,0,0,1,5.527.005,22.446,22.446,0,0,1,8.507,3.375,30.692,30.692,0,0,1,4.762,3.785c1.022,1,1.512,1.628,1.425,1.726s-.755-.33-1.91-1.138a53.76,53.76,0,0,0-4.984-3.183,23.173,23.173,0,0,0-8.061-2.779,15.973,15.973,0,0,0-4.932.1,12.648,12.648,0,0,0-4.81,1.958,10.677,10.677,0,0,0-3.459,3.76,10.5,10.5,0,0,0-1.017,4.651,15.245,15.245,0,0,0,.558,4.431,12.328,12.328,0,0,0,1.622,3.521,11.58,11.58,0,0,0,2.175,2.377,14.5,14.5,0,0,0,2.041,1.415c.593.356,1.1.549,1.419.751.325.186.49.316.471.381" transform="translate(-37.679 50.226)" fill="#e8505b"/>
              <path id="Trazado_838617" data-name="Trazado 838617" d="M125.683,227.083c-.019.065-.222.061-.6-.008a9.427,9.427,0,0,1-1.616-.434,11.732,11.732,0,0,1-5.009-3.663,12.973,12.973,0,0,1-2.056-3.854,16.064,16.064,0,0,1-.814-4.93,11.916,11.916,0,0,1,1.122-5.528,12.3,12.3,0,0,1,4.059-4.492,14.147,14.147,0,0,1,5.575-2.226,17.021,17.021,0,0,1,5.527.005,22.447,22.447,0,0,1,8.507,3.375,30.7,30.7,0,0,1,4.762,3.785c1.022,1,1.512,1.628,1.425,1.726s-.755-.33-1.91-1.138a53.794,53.794,0,0,0-4.984-3.182,23.148,23.148,0,0,0-8.061-2.78,15.973,15.973,0,0,0-4.932.1,12.648,12.648,0,0,0-4.81,1.958,10.688,10.688,0,0,0-3.459,3.76,10.5,10.5,0,0,0-1.017,4.651,15.245,15.245,0,0,0,.558,4.431,12.327,12.327,0,0,0,1.622,3.521,11.58,11.58,0,0,0,2.175,2.377,14.394,14.394,0,0,0,2.041,1.415c.593.356,1.1.549,1.419.751.326.186.49.316.471.381" transform="translate(-38.687 58.155)" fill="#e8505b"/>
              <path id="Trazado_838618" data-name="Trazado 838618" d="M121.707,258.349c-.019.065-.222.061-.6-.008a9.423,9.423,0,0,1-1.616-.434,11.722,11.722,0,0,1-5.009-3.664,12.95,12.95,0,0,1-2.056-3.852,16.064,16.064,0,0,1-.814-4.93,11.924,11.924,0,0,1,1.122-5.53,12.3,12.3,0,0,1,4.059-4.49,14.147,14.147,0,0,1,5.575-2.226,17.02,17.02,0,0,1,5.527.005,22.447,22.447,0,0,1,8.507,3.375,30.692,30.692,0,0,1,4.762,3.785c1.022,1,1.512,1.628,1.425,1.726s-.756-.33-1.91-1.138a53.753,53.753,0,0,0-4.984-3.183A23.182,23.182,0,0,0,127.638,235a15.974,15.974,0,0,0-4.932.1,12.649,12.649,0,0,0-4.81,1.958,10.676,10.676,0,0,0-3.459,3.759,10.5,10.5,0,0,0-1.017,4.651,15.245,15.245,0,0,0,.558,4.431,12.328,12.328,0,0,0,1.622,3.521,11.58,11.58,0,0,0,2.175,2.377,14.5,14.5,0,0,0,2.041,1.415c.592.356,1.1.549,1.419.751.325.185.49.316.471.381" transform="translate(-39.696 66.083)" fill="#e8505b"/>
              <path id="Trazado_838619" data-name="Trazado 838619" d="M117.73,289.614c-.019.065-.222.061-.6-.008a9.423,9.423,0,0,1-1.616-.434,11.721,11.721,0,0,1-5.009-3.664,12.95,12.95,0,0,1-2.056-3.852,16.063,16.063,0,0,1-.814-4.93,11.924,11.924,0,0,1,1.122-5.53,12.3,12.3,0,0,1,4.059-4.49,14.147,14.147,0,0,1,5.575-2.226,17.021,17.021,0,0,1,5.527.005,22.447,22.447,0,0,1,8.507,3.375,30.69,30.69,0,0,1,4.762,3.785c1.022,1,1.512,1.628,1.425,1.726s-.755-.33-1.91-1.138a53.747,53.747,0,0,0-4.984-3.183,23.173,23.173,0,0,0-8.061-2.779,15.974,15.974,0,0,0-4.932.1,12.648,12.648,0,0,0-4.81,1.958,10.676,10.676,0,0,0-3.459,3.76,10.5,10.5,0,0,0-1.017,4.651,15.245,15.245,0,0,0,.558,4.431,12.327,12.327,0,0,0,1.622,3.521,11.58,11.58,0,0,0,2.175,2.377,14.493,14.493,0,0,0,2.041,1.415c.593.356,1.1.549,1.419.751.325.186.49.316.471.381" transform="translate(-40.704 74.012)" fill="#e8505b"/>
              <g id="Grupo_1072078" data-name="Grupo 1072078" transform="translate(66.936 24.713)" opacity="0.2">
                <g id="Grupo_1072077" data-name="Grupo 1072077">
                  <g id="Grupo_1072076" data-name="Grupo 1072076" clip-path="url(#clip-path-9)">
                    <path id="Trazado_838620" data-name="Trazado 838620" d="M149.539,39.488c-.019.065-.222.063-.6-.006a9.546,9.546,0,0,1-1.616-.434,11.626,11.626,0,0,1-2.374-1.23,11.508,11.508,0,0,1-2.635-2.433,13,13,0,0,1-2.056-3.855,16.049,16.049,0,0,1-.814-4.929,11.921,11.921,0,0,1,1.122-5.53,12.292,12.292,0,0,1,4.059-4.49,14.129,14.129,0,0,1,5.575-2.226,16.951,16.951,0,0,1,5.527.005,22.447,22.447,0,0,1,8.507,3.375A30.7,30.7,0,0,1,169,21.517c1.022,1,1.512,1.63,1.425,1.727s-.756-.33-1.91-1.14a54.018,54.018,0,0,0-4.984-3.183,23.208,23.208,0,0,0-8.061-2.778,15.972,15.972,0,0,0-4.932.1,12.651,12.651,0,0,0-4.81,1.959,10.673,10.673,0,0,0-3.459,3.758,10.5,10.5,0,0,0-1.017,4.652,15.235,15.235,0,0,0,.558,4.43,12.336,12.336,0,0,0,1.622,3.523,11.613,11.613,0,0,0,2.175,2.377,14.5,14.5,0,0,0,2.041,1.415c.592.356,1.1.548,1.419.751.325.186.49.316.471.38" transform="translate(-99.574 -14.13)" fill="#b40e0e"/>
                    <path id="Trazado_838621" data-name="Trazado 838621" d="M145.563,70.754c-.019.065-.222.061-.6-.008a9.425,9.425,0,0,1-1.616-.434,11.731,11.731,0,0,1-5.009-3.663,12.973,12.973,0,0,1-2.056-3.854,16.063,16.063,0,0,1-.814-4.93,11.915,11.915,0,0,1,1.122-5.528,12.3,12.3,0,0,1,4.059-4.492,14.147,14.147,0,0,1,5.575-2.226,17.021,17.021,0,0,1,5.527.005A22.447,22.447,0,0,1,160.262,49a30.694,30.694,0,0,1,4.762,3.785c1.022,1,1.512,1.628,1.425,1.726s-.756-.33-1.91-1.138a53.751,53.751,0,0,0-4.984-3.183,23.173,23.173,0,0,0-8.061-2.779,15.973,15.973,0,0,0-4.932.1,12.649,12.649,0,0,0-4.81,1.958,10.676,10.676,0,0,0-3.459,3.76,10.5,10.5,0,0,0-1.017,4.651,15.244,15.244,0,0,0,.558,4.431,12.328,12.328,0,0,0,1.622,3.521,11.58,11.58,0,0,0,2.175,2.377,14.5,14.5,0,0,0,2.041,1.415c.592.356,1.1.549,1.419.751.325.186.49.316.471.381" transform="translate(-100.582 -6.201)" fill="#b40e0e"/>
                    <path id="Trazado_838622" data-name="Trazado 838622" d="M141.587,102.02c-.019.065-.222.061-.6-.008a9.425,9.425,0,0,1-1.616-.434,11.721,11.721,0,0,1-5.009-3.664,12.95,12.95,0,0,1-2.056-3.852,16.064,16.064,0,0,1-.814-4.93,11.924,11.924,0,0,1,1.122-5.53,12.3,12.3,0,0,1,4.059-4.49,14.147,14.147,0,0,1,5.575-2.226,17.021,17.021,0,0,1,5.527.005,22.447,22.447,0,0,1,8.507,3.375,30.693,30.693,0,0,1,4.762,3.785c1.022,1,1.512,1.628,1.425,1.726s-.755-.33-1.91-1.138a53.752,53.752,0,0,0-4.984-3.183,23.173,23.173,0,0,0-8.061-2.779,15.973,15.973,0,0,0-4.932.1,12.648,12.648,0,0,0-4.81,1.958,10.676,10.676,0,0,0-3.459,3.76,10.5,10.5,0,0,0-1.017,4.651,15.244,15.244,0,0,0,.558,4.431,12.328,12.328,0,0,0,1.622,3.521,11.58,11.58,0,0,0,2.175,2.377,14.5,14.5,0,0,0,2.041,1.415c.592.356,1.1.549,1.419.751.325.186.49.316.471.381" transform="translate(-101.59 1.727)" fill="#b40e0e"/>
                    <path id="Trazado_838623" data-name="Trazado 838623" d="M137.611,133.286c-.019.065-.222.061-.6-.008a9.427,9.427,0,0,1-1.616-.434,11.731,11.731,0,0,1-5.009-3.663,12.973,12.973,0,0,1-2.056-3.854,16.064,16.064,0,0,1-.814-4.93,11.924,11.924,0,0,1,1.122-5.53,12.3,12.3,0,0,1,4.059-4.49,14.147,14.147,0,0,1,5.575-2.226,17.02,17.02,0,0,1,5.527.005,22.447,22.447,0,0,1,8.507,3.375,30.692,30.692,0,0,1,4.762,3.785c1.022,1,1.512,1.628,1.425,1.726s-.755-.33-1.91-1.138a53.749,53.749,0,0,0-4.984-3.183,23.174,23.174,0,0,0-8.061-2.779,15.973,15.973,0,0,0-4.932.1A12.649,12.649,0,0,0,133.8,112a10.688,10.688,0,0,0-3.459,3.76,10.5,10.5,0,0,0-1.017,4.651,15.245,15.245,0,0,0,.558,4.431,12.327,12.327,0,0,0,1.622,3.521,11.58,11.58,0,0,0,2.175,2.377,14.392,14.392,0,0,0,2.041,1.415c.593.356,1.1.549,1.419.751.325.186.49.316.471.381" transform="translate(-102.599 9.656)" fill="#b40e0e"/>
                    <path id="Trazado_838624" data-name="Trazado 838624" d="M133.635,164.551c-.019.065-.222.061-.6-.008a9.423,9.423,0,0,1-1.616-.434,11.731,11.731,0,0,1-5.009-3.663,12.957,12.957,0,0,1-2.056-3.854,16.064,16.064,0,0,1-.814-4.93,11.923,11.923,0,0,1,1.122-5.53,12.3,12.3,0,0,1,4.059-4.49,14.147,14.147,0,0,1,5.575-2.226,17.02,17.02,0,0,1,5.527.005,22.447,22.447,0,0,1,8.507,3.375,30.692,30.692,0,0,1,4.762,3.785c1.022,1,1.512,1.628,1.425,1.726s-.755-.33-1.91-1.138a53.792,53.792,0,0,0-4.984-3.182,23.148,23.148,0,0,0-8.061-2.78,15.972,15.972,0,0,0-4.932.1,12.648,12.648,0,0,0-4.81,1.958,10.688,10.688,0,0,0-3.459,3.759,10.5,10.5,0,0,0-1.017,4.651,15.245,15.245,0,0,0,.558,4.431,12.328,12.328,0,0,0,1.622,3.521A11.58,11.58,0,0,0,129.7,162a14.5,14.5,0,0,0,2.041,1.415c.592.356,1.1.549,1.419.751.325.186.49.316.471.381" transform="translate(-103.607 17.584)" fill="#b40e0e"/>
                    <path id="Trazado_838625" data-name="Trazado 838625" d="M129.659,195.817c-.019.065-.222.061-.6-.008a9.424,9.424,0,0,1-1.616-.434,11.721,11.721,0,0,1-5.009-3.664,12.95,12.95,0,0,1-2.056-3.852,16.064,16.064,0,0,1-.814-4.93,11.924,11.924,0,0,1,1.122-5.53,12.3,12.3,0,0,1,4.059-4.49,14.147,14.147,0,0,1,5.575-2.226,17.021,17.021,0,0,1,5.527.005,22.446,22.446,0,0,1,8.507,3.375,30.692,30.692,0,0,1,4.762,3.785c1.022,1,1.512,1.628,1.425,1.726s-.755-.33-1.91-1.138a53.76,53.76,0,0,0-4.984-3.183,23.173,23.173,0,0,0-8.061-2.779,15.973,15.973,0,0,0-4.932.1,12.648,12.648,0,0,0-4.81,1.958,10.677,10.677,0,0,0-3.459,3.76,10.5,10.5,0,0,0-1.017,4.651,15.245,15.245,0,0,0,.558,4.431,12.328,12.328,0,0,0,1.622,3.521,11.58,11.58,0,0,0,2.175,2.377,14.5,14.5,0,0,0,2.041,1.415c.593.356,1.1.549,1.419.751.325.186.49.316.471.381" transform="translate(-104.615 25.513)" fill="#b40e0e"/>
                    <path id="Trazado_838626" data-name="Trazado 838626" d="M125.683,227.083c-.019.065-.222.061-.6-.008a9.427,9.427,0,0,1-1.616-.434,11.732,11.732,0,0,1-5.009-3.663,12.973,12.973,0,0,1-2.056-3.854,16.064,16.064,0,0,1-.814-4.93,11.916,11.916,0,0,1,1.122-5.528,12.3,12.3,0,0,1,4.059-4.492,14.147,14.147,0,0,1,5.575-2.226,17.021,17.021,0,0,1,5.527.005,22.447,22.447,0,0,1,8.507,3.375,30.7,30.7,0,0,1,4.762,3.785c1.022,1,1.512,1.628,1.425,1.726s-.755-.33-1.91-1.138a53.794,53.794,0,0,0-4.984-3.182,23.148,23.148,0,0,0-8.061-2.78,15.973,15.973,0,0,0-4.932.1,12.648,12.648,0,0,0-4.81,1.958,10.688,10.688,0,0,0-3.459,3.76,10.5,10.5,0,0,0-1.017,4.651,15.245,15.245,0,0,0,.558,4.431,12.327,12.327,0,0,0,1.622,3.521,11.58,11.58,0,0,0,2.175,2.377,14.394,14.394,0,0,0,2.041,1.415c.593.356,1.1.549,1.419.751.326.186.49.316.471.381" transform="translate(-105.623 33.442)" fill="#b40e0e"/>
                    <path id="Trazado_838627" data-name="Trazado 838627" d="M121.707,258.349c-.019.065-.222.061-.6-.008a9.423,9.423,0,0,1-1.616-.434,11.722,11.722,0,0,1-5.009-3.664,12.95,12.95,0,0,1-2.056-3.852,16.064,16.064,0,0,1-.814-4.93,11.924,11.924,0,0,1,1.122-5.53,12.3,12.3,0,0,1,4.059-4.49,14.147,14.147,0,0,1,5.575-2.226,17.02,17.02,0,0,1,5.527.005,22.447,22.447,0,0,1,8.507,3.375,30.692,30.692,0,0,1,4.762,3.785c1.022,1,1.512,1.628,1.425,1.726s-.756-.33-1.91-1.138a53.753,53.753,0,0,0-4.984-3.183A23.182,23.182,0,0,0,127.638,235a15.974,15.974,0,0,0-4.932.1,12.649,12.649,0,0,0-4.81,1.958,10.676,10.676,0,0,0-3.459,3.759,10.5,10.5,0,0,0-1.017,4.651,15.245,15.245,0,0,0,.558,4.431,12.328,12.328,0,0,0,1.622,3.521,11.58,11.58,0,0,0,2.175,2.377,14.5,14.5,0,0,0,2.041,1.415c.592.356,1.1.549,1.419.751.325.185.49.316.471.381" transform="translate(-106.632 41.37)" fill="#b40e0e"/>
                    <path id="Trazado_838628" data-name="Trazado 838628" d="M117.73,289.614c-.019.065-.222.061-.6-.008a9.423,9.423,0,0,1-1.616-.434,11.721,11.721,0,0,1-5.009-3.664,12.95,12.95,0,0,1-2.056-3.852,16.063,16.063,0,0,1-.814-4.93,11.924,11.924,0,0,1,1.122-5.53,12.3,12.3,0,0,1,4.059-4.49,14.147,14.147,0,0,1,5.575-2.226,17.021,17.021,0,0,1,5.527.005,22.447,22.447,0,0,1,8.507,3.375,30.69,30.69,0,0,1,4.762,3.785c1.022,1,1.512,1.628,1.425,1.726s-.755-.33-1.91-1.138a53.747,53.747,0,0,0-4.984-3.183,23.173,23.173,0,0,0-8.061-2.779,15.974,15.974,0,0,0-4.932.1,12.648,12.648,0,0,0-4.81,1.958,10.676,10.676,0,0,0-3.459,3.76,10.5,10.5,0,0,0-1.017,4.651,15.245,15.245,0,0,0,.558,4.431,12.327,12.327,0,0,0,1.622,3.521,11.58,11.58,0,0,0,2.175,2.377,14.493,14.493,0,0,0,2.041,1.415c.593.356,1.1.549,1.419.751.325.186.49.316.471.381" transform="translate(-107.64 49.299)" fill="#b40e0e"/>
                  </g>
                </g>
              </g>
              <rect id="Rectángulo_377688" data-name="Rectángulo 377688" width="18.214" height="30.499" transform="translate(380.861 108.928) rotate(-82.753)" fill="#b40e0e"/>
              <path id="Trazado_838629" data-name="Trazado 838629" d="M379.408,82.683a2.841,2.841,0,0,1-.5-.033l-1.464-.162-5.622-.683L351.158,79.17l-68.134-8.938-19.419-2.581c-6.273-.82-12.323-1.681-18.084-2.378A63.353,63.353,0,0,0,229.13,65.1c-5.083.712-9.886,1.8-14.342,1.267a16.977,16.977,0,0,1-6.032-1.869c-1.771-.928-3.313-1.994-4.792-2.913a24.706,24.706,0,0,0-4.27-2.25,11.867,11.867,0,0,0-3.954-.738,7.611,7.611,0,0,0-5.2,1.682,8.5,8.5,0,0,0-1.262,1.492,2.8,2.8,0,0,1,.237-.445,2.736,2.736,0,0,1,.355-.51,3.878,3.878,0,0,1,.583-.636,7.655,7.655,0,0,1,5.29-1.838,12.043,12.043,0,0,1,4.06.7,24.71,24.71,0,0,1,4.355,2.231c1.5.91,3.042,1.959,4.791,2.856a16.611,16.611,0,0,0,5.893,1.779c4.354.494,9.1-.6,14.217-1.345a63.549,63.549,0,0,1,16.532.112c5.785.683,11.823,1.531,18.1,2.342l19.421,2.569,68.109,9.127,20.634,2.841,5.606.8,1.457.226a2.94,2.94,0,0,1,.493.1" transform="translate(-20.002 21.795)" fill="#263238"/>
              <path id="Trazado_838630" data-name="Trazado 838630" d="M373.172,96.944a2.455,2.455,0,0,1-.47-.026l-1.369-.142-5.258-.607-19.323-2.353c-16.341-2.052-38.852-4.881-63.719-8.007l-63.7-8.2-19.3-2.559-5.241-.728-1.361-.206a2.5,2.5,0,0,1-.461-.093,2.454,2.454,0,0,1,.47.026l1.369.142,5.258.607,19.322,2.353,63.729,8.008,63.695,8.2,19.3,2.559,5.243.728,1.361.206a2.5,2.5,0,0,1,.461.093" transform="translate(-19.066 25.771)" fill="#263238"/>
              <path id="Trazado_838631" data-name="Trazado 838631" d="M354.288,180.672a2.217,2.217,0,0,1-.446-.023l-1.3-.133-5-.574-18.368-2.231-60.566-7.606-60.552-7.8-18.34-2.437-4.983-.7-1.292-.2a2.237,2.237,0,0,1-.439-.089,2.215,2.215,0,0,1,.446.023l1.3.133,5,.574,18.366,2.231,60.577,7.607,60.542,7.8,18.341,2.437,4.983.694,1.294.2a2.231,2.231,0,0,1,.438.089" transform="translate(-21.593 47.291)" fill="#263238"/>
              <path id="Trazado_838632" data-name="Trazado 838632" d="M350.676,209.078a2.22,2.22,0,0,1-.446-.023l-1.3-.133-5-.574-18.368-2.231L265,198.512l-60.552-7.8-18.34-2.437-4.983-.7-1.294-.2a2.23,2.23,0,0,1-.437-.089,2.217,2.217,0,0,1,.446.023l1.3.133,5,.574,18.366,2.231,60.577,7.607,60.542,7.8,18.341,2.437,4.983.694,1.294.2a2.23,2.23,0,0,1,.438.089" transform="translate(-22.509 54.495)" fill="#263238"/>
              <path id="Trazado_838633" data-name="Trazado 838633" d="M348.95,194.135a2.128,2.128,0,0,1-.437-.023l-1.275-.129-4.894-.56-17.985-2.182-59.3-7.445-59.29-7.637-17.959-2.388c-2.086-.292-3.722-.522-4.878-.682l-1.266-.194a2.236,2.236,0,0,1-.429-.088,2.158,2.158,0,0,1,.436.021l1.275.129,4.894.562c4.287.52,10.421,1.264,17.984,2.182l59.315,7.446,59.281,7.636,17.959,2.388,4.879.682,1.266.194a2.118,2.118,0,0,1,.429.088" transform="translate(-22.042 50.82)" fill="#263238"/>
              <path id="Trazado_838634" data-name="Trazado 838634" d="M254.7,209.743a3.581,3.581,0,0,1-.79-.034l-2.249-.224-8.255-.945L216.2,205.176l-27.187-3.554-8.229-1.151-2.233-.346a3.624,3.624,0,0,1-.773-.164,3.582,3.582,0,0,1,.79.034l2.249.224,8.255.945,27.209,3.363,27.182,3.554,8.23,1.151,2.233.346a3.628,3.628,0,0,1,.773.164" transform="translate(-22.918 57.705)" fill="#263238"/>
              <path id="Trazado_838635" data-name="Trazado 838635" d="M217.162,89.82c-.023.179-6.474-.494-14.4-1.5s-14.347-1.972-14.325-2.151,6.471.5,14.406,1.5,14.346,1.971,14.323,2.15" transform="translate(-20.216 28.843)" fill="#263238"/>
              <path id="Trazado_838636" data-name="Trazado 838636" d="M355.071,164.675a2.15,2.15,0,0,1-.431-.02l-1.257-.124c-1.1-.127-2.73-.3-4.831-.473s-4.67-.382-7.659-.555c-2.987-.191-6.395-.347-10.16-.513-7.532-.336-16.508-.569-26.471-1.15-4.978-.3-10.207-.682-15.6-1.379-5.387-.731-10.926-1.618-16.62-2.46l-58.262-8.914L196.136,146.3l-4.791-.79-1.245-.221a2.125,2.125,0,0,1-.42-.1,2.131,2.131,0,0,1,.43.031l1.254.158,4.81.668,17.674,2.579,58.289,8.725c5.689.84,11.242,1.735,16.606,2.471,5.367.7,10.584,1.1,15.555,1.413,9.945.613,18.922.894,26.454,1.289,3.767.194,7.174.385,10.163.609,2.99.208,5.562.444,7.661.668s3.724.425,4.823.594l1.25.188a2.123,2.123,0,0,1,.422.087" transform="translate(-19.9 43.819)" fill="#263238"/>
            </g>
          </g>
          <g id="Grupo_1072094" data-name="Grupo 1072094">
            <g id="Grupo_1072093" data-name="Grupo 1072093" clip-path="url(#clip-path-3)">
              <path id="Trazado_838637" data-name="Trazado 838637" d="M68.752,283.591S222.155,131.909,239.6,107.877l-10.5-9.659L56.111,270.257Z" transform="translate(14.229 24.907)" fill="#e0e0e0"/>
              <path id="Trazado_838638" data-name="Trazado 838638" d="M29.7,292.309c6.9.132,25.552-2.532,51.823-29.63l23.18-20.916L86.968,224.7s35.352-32.747,33.66-34.539S100.155,205.8,85.307,218.652C71.8,230.34,26.734,271.56,25.69,287.927a4.113,4.113,0,0,0,4.011,4.381" transform="translate(6.512 48.189)" fill="#0a5e6b"/>
              <g id="Grupo_1072083" data-name="Grupo 1072083" transform="translate(32.562 238.22)" opacity="0.2">
                <g id="Grupo_1072082" data-name="Grupo 1072082">
                  <g id="Grupo_1072081" data-name="Grupo 1072081" clip-path="url(#clip-path-11)">
                    <path id="Trazado_838639" data-name="Trazado 838639" d="M120.554,190.159c-1.691-1.79-20.474,15.644-35.321,28.493-1.171,1.012-2.591,2.259-4.186,3.681L98.66,239.207,75.523,260.172c-23.789,24.642-41.345,29.146-49.548,29.68a4.085,4.085,0,0,0,3.652,2.457c6.9.132,25.553-2.532,51.823-29.63l23.18-20.916L86.894,224.7s35.351-32.749,33.66-34.539" transform="translate(-25.975 -190.031)"/>
                  </g>
                </g>
              </g>
              <path id="Trazado_838640" data-name="Trazado 838640" d="M91.675,239.824,212.58,118.3l-5.12-4.71L86.76,234.638Z" transform="translate(22.001 28.806)" fill="#263238"/>
              <path id="Trazado_838641" data-name="Trazado 838641" d="M207.437,109.91S218.905,91.84,215.7,90.893s-18.653,9.2-18.653,9.2L200,103.144l-17.49,16.893,5.788,4.039,15.971-16.868Z" transform="translate(46.282 23.033)" fill="#455a64"/>
              <path id="Trazado_838642" data-name="Trazado 838642" d="M110.6,185.211h0A11.278,11.278,0,0,0,122.734,174.4c.236-6.139.441-12.344.441-12.344s9.3-.871,9.977-10.078.366-30.458.366-30.458A32.079,32.079,0,0,0,101.1,123.6l-1.429.968.521,49.517A11.275,11.275,0,0,0,110.6,185.211" transform="translate(25.275 29.946)" fill="#ffbe9d"/>
              <path id="Trazado_838643" data-name="Trazado 838643" d="M111.465,111.343c-5.6-.168-10.683,3.491-13.283,8s-3.164,9.729-3.406,14.81c-.471,9.966.118,19.945.707,29.9a3.244,3.244,0,0,0,.641,2.107,4.007,4.007,0,0,0,2.427.911,189.306,189.306,0,0,0,51.282.078c1.121-2.027-.451-4.435-2.266-5.993s-4.06-2.973-4.715-5.162c-1.032-3.442,2.391-7.133,1.056-10.489-1-2.521-4.319-3.762-5.484-6.225-1.958-4.137,3.094-9.137.852-13.154-1.168-2.095-3.9-3.021-5.629-4.769-1.527-1.543-2.182-3.639-3.506-5.332-2.073-2.649-5.639-4.077-9.191-4.487a33.736,33.736,0,0,0-9.483-.2" transform="translate(23.99 28.17)" fill="#12263f"/>
              <path id="Trazado_838644" data-name="Trazado 838644" d="M101.162,119.687c-2.378,1.16-3.406,4-3.751,6.621s-.252,5.373-1.343,7.784c-1.165,2.574-3.592,4.537-4.231,7.288-.832,3.576,1.526,7.794-.6,10.786-1.371,1.928-4.064,2.411-5.754,4.068-2.335,2.292-2.127,6.046-1.755,9.3l30.737-.275" transform="translate(21.173 30.351)" fill="#12263f"/>
              <path id="Trazado_838645" data-name="Trazado 838645" d="M109.17,117.338a9.358,9.358,0,0,0-14.119-6.263c-4.912,3.032-6.647,10.273-12.17,11.952-1.438.438-3.209.567-3.965,1.864-.79,1.354.192,3.182,1.6,3.86a8.609,8.609,0,0,0,4.621.372c-1.8-.4-3.568,1.591-3.207,3.4a3.749,3.749,0,0,0,4.227,2.7,5.218,5.218,0,0,0,3.89-3.561q-1,2.9-2,5.8c3.822.671,7.08-2.772,9.018-6.134s3.694-7.292,7.273-8.791c1.591-.667,3.439-.787,4.806-1.838s1.637-3.683-.01-4.193" transform="translate(19.941 27.818)" fill="#12263f"/>
              <path id="Trazado_838646" data-name="Trazado 838646" d="M104.957,115.881c.033-.06.717.278,1.346,1.285a4.975,4.975,0,0,1-2.911,7.463,2.6,2.6,0,0,1-1.862.034c0-.11.711-.075,1.714-.471a4.832,4.832,0,0,0,2.655-6.8c-.47-.97-1.017-1.425-.943-1.507" transform="translate(25.747 29.384)" fill="#263238"/>
              <path id="Trazado_838647" data-name="Trazado 838647" d="M130.854,350.209l15.756,72.674L167.4,422.4l-9.209-78.616Z" transform="translate(33.183 87.179)" fill="#ffbe9d"/>
              <path id="Trazado_838648" data-name="Trazado 838648" d="M73.515,187.374s-.354.506-.926,1.417c-3.341,5.3-12.739,24.325-4.82,37.05l19.878-17.475,3.36-7.851" transform="translate(16.401 47.516)" fill="#ffbe9d"/>
              <path id="Trazado_838649" data-name="Trazado 838649" d="M82.223,302.093,75.529,426.174l20.459,4.943,15.339-126.409Z" transform="translate(19.153 76.607)" fill="#ffbe9d"/>
              <path id="Trazado_838650" data-name="Trazado 838650" d="M174.452,183.036l-28.84,6.959-1.666,22.246,4.016,12.686c-.049.46,6.485,21.795,6.485,21.795l2.023,7.055-65.914.686c-.221-7.7,4.9-15.3,4.9-15.3,3.751-6.361,2.78-15.962,1.035-23.252-.553-2.307-1.285-6.109-1.578-8.463l-.05-.4L91.1,213.68,68.21,197.159c7.431-14.333,18.335-28.829,19.647-29.907a26.943,26.943,0,0,1,16.982-6.227l28.456.242s22.4-2.806,35.463-5.011Z" transform="translate(17.297 39.625)" fill="#1fd27a"/>
              <path id="Trazado_838651" data-name="Trazado 838651" d="M166.3,158.807a18.8,18.8,0,0,0-2.977,2.12c-.888.776-1.878,1.829-3.022,3.064a29.336,29.336,0,0,1-4.215,3.907,26.853,26.853,0,0,1-13.911,5.177,26.088,26.088,0,0,1-8.815-.831c-2.979-.807-5.867-2.134-8.946-3a19.172,19.172,0,0,0-4.633-.771,17.959,17.959,0,0,0-4.519.529,42.774,42.774,0,0,0-8.091,3.229,63.989,63.989,0,0,1-7.312,3.208,21.293,21.293,0,0,1-16.648-1.008,18.916,18.916,0,0,1-2.355-1.4,5.347,5.347,0,0,1-.75-.592c.041-.065,1.076.766,3.215,1.761a21.762,21.762,0,0,0,9.659,2.007,21.318,21.318,0,0,0,6.7-1.281,65.363,65.363,0,0,0,7.226-3.237,42.665,42.665,0,0,1,8.2-3.309,18.441,18.441,0,0,1,4.691-.558,19.693,19.693,0,0,1,4.792.792c3.147.893,6.027,2.22,8.939,3.016a25.7,25.7,0,0,0,8.6.849,26.709,26.709,0,0,0,13.682-4.949,30.06,30.06,0,0,0,4.223-3.788,39.454,39.454,0,0,1,3.121-3,12.728,12.728,0,0,1,2.266-1.547,6.078,6.078,0,0,1,.646-.3c.148-.061.226-.088.231-.078" transform="translate(20.315 40.271)" fill="#263238"/>
              <path id="Trazado_838652" data-name="Trazado 838652" d="M142.572,191.315a2.649,2.649,0,0,1-.574.553,5.051,5.051,0,0,1-2.1.909,8.184,8.184,0,0,1-3.622-.186,14.624,14.624,0,0,1-4.312-2.1,37.242,37.242,0,0,0-4.874-2.975,14.1,14.1,0,0,0-6.318-1.152c-4.621.143-9.424,2.087-14.339,4.212a50.912,50.912,0,0,1-7.449,2.591,19.639,19.639,0,0,1-7.357.525,15.516,15.516,0,0,1-6.262-2.328,22.282,22.282,0,0,1-4.446-3.737,42.066,42.066,0,0,1-4.924-6.762c-.51-.844-.891-1.507-1.146-1.959a3.616,3.616,0,0,1-.357-.71,3.617,3.617,0,0,1,.47.641l1.249,1.892a46.572,46.572,0,0,0,5.044,6.581,22.24,22.24,0,0,0,4.4,3.594A15.089,15.089,0,0,0,91.7,193.1a19.185,19.185,0,0,0,7.127-.55,51.335,51.335,0,0,0,7.35-2.572c4.9-2.116,9.8-4.094,14.572-4.21a14.528,14.528,0,0,1,6.56,1.26,36.31,36.31,0,0,1,4.905,3.084,14.576,14.576,0,0,0,4.153,2.13,8.131,8.131,0,0,0,3.48.287,5.987,5.987,0,0,0,2.722-1.211" transform="translate(18.889 45.189)" fill="#263238"/>
              <path id="Trazado_838653" data-name="Trazado 838653" d="M139.074,206.508c.016.015-.1.153-.326.4a7.317,7.317,0,0,1-1.123.983,10.8,10.8,0,0,1-5.153,1.816,18.74,18.74,0,0,1-8.036-1.088c-2.9-.99-5.868-2.565-9.085-3.874a21.783,21.783,0,0,0-9.475-1.838,21.313,21.313,0,0,0-7.687,1.855,26.285,26.285,0,0,0-6.107,4.077c-.016-.015.094-.154.321-.407a11.375,11.375,0,0,1,1.049-1.05,19.323,19.323,0,0,1,4.542-3.037,21.062,21.062,0,0,1,7.851-2.037,21.9,21.9,0,0,1,9.749,1.833c3.266,1.33,6.205,2.911,9.042,3.912a18.823,18.823,0,0,0,7.794,1.195,11.138,11.138,0,0,0,5.053-1.568c1.064-.686,1.541-1.227,1.591-1.176" transform="translate(23.35 51.294)" fill="#263238"/>
              <path id="Trazado_838654" data-name="Trazado 838654" d="M146.38,222.642c-.041.055-.669-.463-1.958-1.121a16,16,0,0,0-5.869-1.561,26.439,26.439,0,0,0-8.978.98c-3.316.875-6.835,2.3-10.652,3.5a33.911,33.911,0,0,1-11.139,1.754,31.833,31.833,0,0,1-9.092-1.488,29.654,29.654,0,0,1-5.7-2.466c-.644-.352-1.117-.671-1.437-.886A2.083,2.083,0,0,1,91.09,221c.033-.053.722.371,2.025,1.018a34,34,0,0,0,5.71,2.248,32.663,32.663,0,0,0,8.966,1.329,34.209,34.209,0,0,0,10.938-1.776c3.78-1.188,7.322-2.6,10.693-3.455a26,26,0,0,1,9.174-.857,15.239,15.239,0,0,1,5.946,1.8,9.978,9.978,0,0,1,1.4.948c.3.244.45.38.436.4" transform="translate(23.099 55.635)" fill="#263238"/>
              <path id="Trazado_838655" data-name="Trazado 838655" d="M88.674,232.618l-12.635,144.9,31.218.186,15.427-116.127,20.139,117.18,31.237-5.764L154.916,233.838Z" transform="translate(19.282 58.989)" fill="#12263f"/>
              <path id="Trazado_838656" data-name="Trazado 838656" d="M140.773,252.7c.021.179-10.682,1.595-23.9,3.163s-23.962,2.693-23.984,2.515,10.681-1.6,23.906-3.163,23.96-2.694,23.981-2.515" transform="translate(23.555 64.076)" fill="#455a64"/>
              <path id="Trazado_838657" data-name="Trazado 838657" d="M167.048,408.664l-.088-2.324-23.537.681.2,7.662,1.455.048c6.476.161,32.941.39,37.225-.944,4.779-1.489-15.26-5.122-15.26-5.122" transform="translate(36.37 103.043)" fill="#0a5e6b"/>
              <g id="Grupo_1072086" data-name="Grupo 1072086" transform="translate(179.827 511.284)" opacity="0.6">
                <g id="Grupo_1072085" data-name="Grupo 1072085">
                  <g id="Grupo_1072084" data-name="Grupo 1072084" clip-path="url(#clip-path-12)">
                    <path id="Trazado_838658" data-name="Trazado 838658" d="M152.111,413.9a7.527,7.527,0,0,0-3.134-4.564,8.335,8.335,0,0,0-5.526-1.437l.184,6.089Z" transform="translate(-143.45 -407.857)" fill="#fff"/>
                  </g>
                </g>
              </g>
              <g id="Grupo_1072089" data-name="Grupo 1072089" transform="translate(179.998 513.804)" opacity="0.6">
                <g id="Grupo_1072088" data-name="Grupo 1072088">
                  <g id="Grupo_1072087" data-name="Grupo 1072087" clip-path="url(#clip-path-13)">
                    <path id="Trazado_838659" data-name="Trazado 838659" d="M176.807,409.867s7.036,1.684,6.2,2.775-27.591,1.8-39.42,1.146l.023-.488,31.213-.573s.623-2.772,1.986-2.861" transform="translate(-143.586 -409.867)" fill="#fff"/>
                  </g>
                </g>
              </g>
              <path id="Trazado_838660" data-name="Trazado 838660" d="M143.31,412.81a2.434,2.434,0,0,0,.4.03l1.16.034,4.263.059c3.6.026,8.576,0,14.069-.14s10.464-.37,14.056-.579l4.255-.277,1.155-.093a2.19,2.19,0,0,0,.4-.051,2.5,2.5,0,0,0-.4,0l-1.158.045-4.257.192c-3.6.163-8.563.361-14.055.5s-10.461.2-14.06.217l-4.262.025-1.16.016a2.412,2.412,0,0,0-.4.023" transform="translate(36.342 104.423)" fill="#263238"/>
              <path id="Trazado_838661" data-name="Trazado 838661" d="M168.516,413.121a8.508,8.508,0,0,1,.738-1.911,9.173,9.173,0,0,1,1.405-1.554,3.111,3.111,0,0,0-1.652,1.423,2.753,2.753,0,0,0-.491,2.042" transform="translate(42.721 103.882)" fill="#263238"/>
              <path id="Trazado_838662" data-name="Trazado 838662" d="M162.915,410.336c.068.038.387-.346.713-.855s.537-.954.469-.99-.386.345-.713.855-.537.953-.469.99" transform="translate(41.31 103.587)" fill="#263238"/>
              <path id="Trazado_838663" data-name="Trazado 838663" d="M161.377,409.514c.054.053.417-.187.81-.534s.669-.673.616-.726-.417.187-.811.534-.668.673-.614.726" transform="translate(40.922 103.526)" fill="#263238"/>
              <path id="Trazado_838664" data-name="Trazado 838664" d="M160.369,407.674a5.738,5.738,0,0,0,2.45-.039,5.738,5.738,0,0,0-2.45.039" transform="translate(40.668 103.342)" fill="#263238"/>
              <path id="Trazado_838665" data-name="Trazado 838665" d="M160.005,406.5a2.5,2.5,0,0,0,1.375.333,2.535,2.535,0,0,0,1.4-.212,118.886,118.886,0,0,1-2.779-.122" transform="translate(40.575 103.077)" fill="#263238"/>
              <path id="Trazado_838666" data-name="Trazado 838666" d="M163.5,408.842a4.68,4.68,0,0,0,1.506-.049,9.429,9.429,0,0,0,1.593-.37,4.586,4.586,0,0,0,.906-.376.768.768,0,0,0,.36-.445.535.535,0,0,0-.246-.553,2.882,2.882,0,0,0-3.391.84,2.407,2.407,0,0,0-.464.948c-.053.241-.044.377-.028.379a3.833,3.833,0,0,1,.651-1.212,2.73,2.73,0,0,1,1.262-.811,2.5,2.5,0,0,1,1.8.066c.244.159.159.422-.1.577a4.605,4.605,0,0,1-.836.358,10.89,10.89,0,0,1-1.539.416c-.9.172-1.47.189-1.469.232" transform="translate(41.461 103.16)" fill="#263238"/>
              <path id="Trazado_838667" data-name="Trazado 838667" d="M164.224,409.017a1.3,1.3,0,0,0,.144-.977,2.2,2.2,0,0,0-.443-1.012,1.535,1.535,0,0,0-1.275-.681.556.556,0,0,0-.445.658,1.477,1.477,0,0,0,.276.619,4.316,4.316,0,0,0,.736.827,2.191,2.191,0,0,0,.879.544c.026-.034-.307-.243-.736-.674a4.934,4.934,0,0,1-.656-.824c-.216-.291-.374-.819,0-.893a1.373,1.373,0,0,1,1.01.569,2.227,2.227,0,0,1,.453.9,4.7,4.7,0,0,1,.054.943" transform="translate(41.13 103.044)" fill="#263238"/>
              <path id="Trazado_838668" data-name="Trazado 838668" d="M143.547,407.875c.006.049.669-.078,1.732.011a7.924,7.924,0,0,1,3.821,1.348,7.1,7.1,0,0,1,2.454,3.039c.386.925.44,1.552.491,1.544a1.163,1.163,0,0,0-.013-.44,5.351,5.351,0,0,0-.291-1.168,6.767,6.767,0,0,0-2.472-3.185,7.615,7.615,0,0,0-3.979-1.324,6.592,6.592,0,0,0-1.287.065,1.407,1.407,0,0,0-.458.11" transform="translate(36.402 103.386)" fill="#263238"/>
              <path id="Trazado_838669" data-name="Trazado 838669" d="M152.659,410.949a20.71,20.71,0,0,0,6.85-.119c-.01-.076-1.538.05-3.425.081s-3.419-.039-3.425.038" transform="translate(38.712 104.175)" fill="#263238"/>
              <path id="Trazado_838670" data-name="Trazado 838670" d="M149,411.014c-.055.055.134.3.3.62s.259.609.341.6.11-.347-.087-.718-.506-.559-.555-.505" transform="translate(37.781 104.225)" fill="#263238"/>
              <path id="Trazado_838671" data-name="Trazado 838671" d="M147.568,409.453c-.054.053.1.276.354.5s.5.36.549.306-.1-.275-.352-.5-.5-.36-.55-.307" transform="translate(37.419 103.829)" fill="#263238"/>
              <path id="Trazado_838672" data-name="Trazado 838672" d="M145.569,408.8c.019.074.33.063.677.167s.6.267.661.216-.144-.346-.577-.469-.787.02-.761.087" transform="translate(36.914 103.632)" fill="#263238"/>
              <path id="Trazado_838673" data-name="Trazado 838673" d="M144.153,408.476c-.026.069.112.177.308.242s.377.063.4-.006-.112-.177-.308-.242-.377-.063-.4.006" transform="translate(36.554 103.571)" fill="#263238"/>
              <path id="Trazado_838674" data-name="Trazado 838674" d="M75.748,400.227l-3.484,15.326H95.808l1.008-9.977Z" transform="translate(18.325 101.492)" fill="#0a5e6b"/>
              <path id="Trazado_838675" data-name="Trazado 838675" d="M96.16,410.833a16.551,16.551,0,0,1-3.43.2c-2.12.023-5.047-.034-8.275-.153-3.111-.132-5.926-.251-8.261-.351a19.348,19.348,0,0,1-3.421-.274,16.658,16.658,0,0,1,3.431-.187c2.119-.018,5.046.041,8.275.16l8.259.344a19.492,19.492,0,0,1,3.422.264" transform="translate(18.454 103.986)" fill="#263238"/>
              <path id="Trazado_838676" data-name="Trazado 838676" d="M83.633,402.61c.179.013.177,2.234-.008,4.963s-.478,4.932-.658,4.919-.177-2.233.008-4.963.478-4.932.658-4.919" transform="translate(21.006 102.097)" fill="#263238"/>
              <g id="Grupo_1072092" data-name="Grupo 1072092" transform="translate(90.589 514.238)" opacity="0.6">
                <g id="Grupo_1072091" data-name="Grupo 1072091">
                  <g id="Grupo_1072090" data-name="Grupo 1072090" clip-path="url(#clip-path-14)">
                    <path id="Trazado_838677" data-name="Trazado 838677" d="M72.264,413.021H95.808l.224-2.226-23.343-.582-.425,2.542" transform="translate(-72.264 -410.213)" fill="#fff"/>
                  </g>
                </g>
              </g>
              <path id="Trazado_838678" data-name="Trazado 838678" d="M203.525,118.164l-8.586,3.1c-.123-3.439-2.461-7.021-2.461-5.3s-.812,10.6-.812,10.6l-17.91,31.157c-2.491,4.963-6.977,7.855-10.2,8.368l-14.69,3.145,4.128,19.417,20.469-5.054a17.26,17.26,0,0,0,11.792-10.111l17.029-40.822a65.135,65.135,0,0,0,2.868-8.081c.861-3.446-1.627-6.413-1.627-6.413" transform="translate(37.75 29.294)" fill="#ffbe9d"/>
            </g>
          </g>
        </g>
      </g>
    </g>
    <g id="Grupo_1072019" data-name="Grupo 1072019" transform="translate(1315 1063.791)">
      <g id="Grupo_151704" data-name="Grupo 151704" transform="translate(0 9.699)">
        <path id="Trazado_212295" data-name="Trazado 212295" d="M-11425.02-11468v19.4" transform="translate(11434.719 11467.999)" fill="none" stroke="#0a5e6b" stroke-width="5"/>
        <path id="Trazado_212296" data-name="Trazado 212296" d="M0,0V19.4" transform="translate(19.398 9.699) rotate(90)" fill="none" stroke="#0a5e6b" stroke-width="5"/>
      </g>
      <g id="Grupo_151705" data-name="Grupo 151705" transform="translate(25.218 0)">
        <path id="Trazado_212295-2" data-name="Trazado 212295" d="M-11425.02-11468v19.4" transform="translate(11434.719 11467.999)" fill="none" stroke="#0a5e6b" stroke-width="5"/>
        <path id="Trazado_212296-2" data-name="Trazado 212296" d="M0,0V19.4" transform="translate(19.398 9.699) rotate(90)" fill="none" stroke="#0a5e6b" stroke-width="5"/>
      </g>
      <g id="Grupo_151706" data-name="Grupo 151706" transform="translate(29.421 29.097)">
        <path id="Trazado_212295-3" data-name="Trazado 212295" d="M-11425.02-11468v19.4" transform="translate(11434.719 11467.999)" fill="none" stroke="#0a5e6b" stroke-width="5"/>
        <path id="Trazado_212296-3" data-name="Trazado 212296" d="M0,0V19.4" transform="translate(19.398 9.699) rotate(90)" fill="none" stroke="#0a5e6b" stroke-width="5"/>
      </g>
    </g>
    <g id="Grupo_1072020" data-name="Grupo 1072020" transform="translate(1369 1021.999)">
      <g id="Grupo_151688" data-name="Grupo 151688" transform="translate(0 7.064)">
        <path id="Trazado_212295-4" data-name="Trazado 212295" d="M-11425.02-11468v14.128" transform="translate(11432.083 11467.998)" fill="none" stroke="#0a5e6b" stroke-width="4"/>
        <path id="Trazado_212296-4" data-name="Trazado 212296" d="M0,0V14.127" transform="translate(14.127 7.064) rotate(90)" fill="none" stroke="#0a5e6b" stroke-width="4"/>
      </g>
      <g id="Grupo_151689" data-name="Grupo 151689" transform="translate(18.366 0)">
        <path id="Trazado_212295-5" data-name="Trazado 212295" d="M-11425.02-11468v14.128" transform="translate(11432.083 11467.998)" fill="none" stroke="#0a5e6b" stroke-width="4"/>
        <path id="Trazado_212296-5" data-name="Trazado 212296" d="M0,0V14.127" transform="translate(14.127 7.064) rotate(90)" fill="none" stroke="#0a5e6b" stroke-width="4"/>
      </g>
      <g id="Grupo_151690" data-name="Grupo 151690" transform="translate(21.427 21.192)">
        <path id="Trazado_212295-6" data-name="Trazado 212295" d="M-11425.02-11468v14.128" transform="translate(11432.083 11467.998)" fill="none" stroke="#0a5e6b" stroke-width="4"/>
        <path id="Trazado_212296-6" data-name="Trazado 212296" d="M0,0V14.127" transform="translate(14.127 7.064) rotate(90)" fill="none" stroke="#0a5e6b" stroke-width="4"/>
      </g>
    </g>
  </g>
</svg>
