<svg id="Page-1" xmlns="http://www.w3.org/2000/svg" width="95.307" height="95.318" viewBox="0 0 95.307 95.318">
  <g id="_002---Pen-and-Paper" data-name="002---Pen-and-Paper" transform="translate(0 0)">
    <path id="Shape" d="M4.766,95.318H66.723a4.766,4.766,0,0,0,4.766-4.766V65.134a1.589,1.589,0,0,0-3.177,0V90.552a1.589,1.589,0,0,1-1.589,1.589H4.766a1.589,1.589,0,0,1-1.589-1.589V25.418H19.064a6.355,6.355,0,0,0,6.355-6.355V3.177h41.3a1.589,1.589,0,0,1,1.589,1.589V30.184a1.589,1.589,0,1,0,3.177,0V4.766A4.766,4.766,0,0,0,66.723,0H25.147a4.731,4.731,0,0,0-3.371,1.4L1.4,21.775A4.731,4.731,0,0,0,0,25.147V90.552a4.766,4.766,0,0,0,4.766,4.766ZM22.241,5.424v13.64a3.177,3.177,0,0,1-3.177,3.177H5.424Z" transform="translate(0 0)" fill="#0a5e6b"/>
    <path id="Shape-2" data-name="Shape" d="M6,21.589a1.589,1.589,0,0,0,1.589,1.589H56.836a1.589,1.589,0,1,0,0-3.177H7.589A1.589,1.589,0,0,0,6,21.589Z" transform="translate(3.532 11.773)" fill="#0a5e6b"/>
    <path id="Shape-3" data-name="Shape" d="M7.589,28.177H45.351a1.589,1.589,0,0,0,0-3.177H7.589a1.589,1.589,0,0,0,0,3.177Z" transform="translate(3.532 14.716)" fill="#0a5e6b"/>
    <path id="Shape-4" data-name="Shape" d="M7.589,33.177h26.26a1.589,1.589,0,0,0,0-3.177H7.589a1.589,1.589,0,1,0,0,3.177Z" transform="translate(3.532 17.659)" fill="#0a5e6b"/>
    <path id="Shape-5" data-name="Shape" d="M7.589,42.177H19.535a1.589,1.589,0,1,0,0-3.177H7.589a1.589,1.589,0,1,0,0,3.177Z" transform="translate(3.532 22.957)" fill="#0a5e6b"/>
    <path id="Shape-6" data-name="Shape" d="M7.589,47.177h6.529a1.589,1.589,0,1,0,0-3.177H7.589a1.589,1.589,0,1,0,0,3.177Z" transform="translate(3.532 25.9)" fill="#0a5e6b"/>
    <path id="Shape-7" data-name="Shape" d="M62.524,29.034,31.409,50.556a3.177,3.177,0,0,0-.818.825L20.615,66.005a3.177,3.177,0,0,0-.556,1.792H7.589a1.589,1.589,0,0,0,0,3.177h15.64a3.216,3.216,0,0,0,.761-.092l17.2-4.172a3.139,3.139,0,0,0,1.063-.477L73.358,44.717,79.891,40.2l9.146-6.324a6.363,6.363,0,0,0,1.612-8.841l-3.616-5.227A6.355,6.355,0,0,0,78.193,18.2l-9.146,6.326Zm7.033-1,7.23,10.453L72.866,41.2,65.638,30.747ZM70.253,43,41.508,62.887l-7.23-10.452,28.754-19.88ZM32.078,54.834,38.483,64.1l-6.618,1.6-3.624-5.238Zm-5.754,8.437,2.235,3.234L23.24,67.8ZM80.01,20.807a3.177,3.177,0,0,1,4.421.807l3.614,5.227a3.177,3.177,0,0,1-.807,4.418L79.4,36.682l-7.23-10.453Z" transform="translate(3.532 10.046)" fill="#0a5e6b"/>
    <path id="Shape-8" data-name="Shape" d="M40.943,49.589v6.355H34.589a1.589,1.589,0,0,0,0,3.177h7.943a1.589,1.589,0,0,0,1.589-1.589V49.589a1.589,1.589,0,0,0-3.177,0Z" transform="translate(19.425 28.255)" fill="#0a5e6b"/>
    <path id="Shape-9" data-name="Shape" d="M44.3,5H31.589a1.589,1.589,0,0,0,0,3.177H44.3A1.589,1.589,0,0,0,44.3,5Z" transform="translate(17.659 2.943)" fill="#0a5e6b"/>
    <path id="Shape-10" data-name="Shape" d="M42.532,9H34.589a1.589,1.589,0,0,0,0,3.177h7.943a1.589,1.589,0,0,0,0-3.177Z" transform="translate(19.425 5.298)" fill="#0a5e6b"/>
  </g>
</svg>
