<svg xmlns="http://www.w3.org/2000/svg" width="114" height="114" viewBox="0 0 114 114">
  <g id="Grupo_1072109" data-name="Grupo 1072109" transform="translate(-269 -958)">
    <circle id="Elipse_5614" data-name="Elipse 5614" cx="57" cy="57" r="57" transform="translate(269 958)" fill="#0a5e6b"/>
    <g id="Grupo_1072116" data-name="Grupo 1072116" transform="translate(292.129 976.57)">
      <g id="Page-1_86_" transform="translate(4.141 6.141)">
        <g id="_x30_87---Check-Spelling" transform="translate(0 0)">
          <path id="Shape_225_" d="M236.25,214.426a15.432,15.432,0,1,0,4.519,10.913A15.432,15.432,0,0,0,236.25,214.426Zm-1.56,20.266a13.228,13.228,0,1,1,3.875-9.353A13.227,13.227,0,0,1,234.69,234.692Z" transform="translate(-186.757 -186.759)" fill="#fff"/>
          <path id="Path_234_" d="M277.366,255.013a1.1,1.1,0,0,0,.779-.323,8.752,8.752,0,0,1,6.235-2.584,1.1,1.1,0,0,0,0-2.2,10.94,10.94,0,0,0-7.793,3.23,1.1,1.1,0,0,0,.779,1.882Z" transform="translate(-245.8 -222.344)" fill="#fff" fill-rule="evenodd"/>
          <path id="Shape_224_" d="M59.257,53.02a2.141,2.141,0,0,0-2.12-.565L54.744,50.06A19.841,19.841,0,0,0,46.3,20.3V3.307A3.307,3.307,0,0,0,42.989,0H3.307A3.307,3.307,0,0,0,0,3.307v48.5a3.307,3.307,0,0,0,3.307,3.307H27.6a19.81,19.81,0,0,0,22.458-.373l2.394,2.393a2.145,2.145,0,0,0,.564,2.121l5.59,5.59a4.409,4.409,0,1,0,6.234-6.234Zm-55.95-.11a1.1,1.1,0,0,1-1.1-1.1V3.307a1.1,1.1,0,0,1,1.1-1.1H42.989a1.1,1.1,0,0,1,1.1,1.1V19.523A19.841,19.841,0,0,0,24.55,52.61c.11.11.22.2.331.3Zm22.8-1.86a17.637,17.637,0,1,1,12.47,5.166A17.636,17.636,0,0,1,26.11,51.05Zm26.5,1.56c.262-.262.5-.545.742-.819L55.36,53.8,53.8,55.36l-2.008-2.009C52.065,53.106,52.348,52.872,52.61,52.61ZM63.287,63.287a2.256,2.256,0,0,1-3.117,0L54.582,57.7l.012-.018L57.681,54.6l.019-.012,5.586,5.587a2.2,2.2,0,0,1,0,3.117Z" transform="translate(0 0)" fill="#fff"/>
          <g id="Grupo_1072115" data-name="Grupo 1072115" transform="translate(5.511 19.841)">
            <path id="Path_233_" d="M51.083,182.135H66.515a1.1,1.1,0,1,0,0-2.2H51.083a1.1,1.1,0,0,0,0,2.2Z" transform="translate(-49.981 -179.93)" fill="#fff" fill-rule="evenodd"/>
            <path id="Path_232_" d="M62.106,229.91H51.083a1.1,1.1,0,0,0,0,2.2H62.106a1.1,1.1,0,1,0,0-2.2Z" transform="translate(-49.981 -224.399)" fill="#fff" fill-rule="evenodd"/>
            <path id="Path_231_" d="M59.9,279.891H51.083a1.1,1.1,0,1,0,0,2.2H59.9a1.1,1.1,0,1,0,0-2.2Z" transform="translate(-49.981 -268.868)" fill="#fff" fill-rule="evenodd"/>
            <path id="Path_230_" d="M51.083,332.076H58.8a1.1,1.1,0,0,0,0-2.2H51.083a1.1,1.1,0,1,0,0,2.2Z" transform="translate(-49.981 -313.337)" fill="#fff" fill-rule="evenodd"/>
            <path id="Path_229_" d="M51.083,382.057H58.8a1.1,1.1,0,1,0,0-2.2H51.083a1.1,1.1,0,1,0,0,2.2Z" transform="translate(-49.981 -357.806)" fill="#fff" fill-rule="evenodd"/>
            <path id="Path_228_" d="M59.9,429.832H51.083a1.1,1.1,0,1,0,0,2.2H59.9a1.1,1.1,0,1,0,0-2.2Z" transform="translate(-49.981 -402.275)" fill="#fff" fill-rule="evenodd"/>
          </g>
          <path id="Shape_223_" d="M51.082,53.212a1.1,1.1,0,0,0,1.1-1.1V47.7h4.409V52.11a1.1,1.1,0,0,0,2.2,0V44.394a4.409,4.409,0,0,0-8.818,0V52.11A1.1,1.1,0,0,0,51.082,53.212ZM54.389,42.19a2.2,2.2,0,0,1,2.2,2.2v1.1H52.185v-1.1A2.2,2.2,0,0,1,54.389,42.19Z" transform="translate(-44.469 -35.576)" fill="#fff"/>
          <path id="Shape_222_" d="M151.043,53.211H154.9a3.849,3.849,0,0,0,2.025-7.127,3.845,3.845,0,0,0-3.127-6.1h-2.756a1.1,1.1,0,0,0-1.1,1.1V52.109A1.1,1.1,0,0,0,151.043,53.211Zm3.858-2.2h-2.756V47.7H154.9a1.653,1.653,0,0,1,0,3.307Zm-2.756-8.818H153.8a1.653,1.653,0,1,1,0,3.307h-1.653Z" transform="translate(-133.407 -35.575)" fill="#fff"/>
          <path id="Path_227_" d="M245.418,53.212h2.2a1.1,1.1,0,0,0,0-2.2h-2.2a3.307,3.307,0,0,1-3.307-3.307V45.5a3.307,3.307,0,0,1,3.307-3.307h2.2a1.1,1.1,0,0,0,0-2.2h-2.2a5.518,5.518,0,0,0-5.511,5.511v2.2A5.518,5.518,0,0,0,245.418,53.212Z" transform="translate(-213.452 -35.576)" fill="#fff" fill-rule="evenodd"/>
          <path id="Path_226_" d="M285.759,300.315l-10.244,10.244-3.63-3.63a1.1,1.1,0,0,0-1.559,1.559l4.409,4.409a1.1,1.1,0,0,0,1.559,0l11.023-11.023a1.1,1.1,0,0,0-1.558-1.559Z" transform="translate(-240.242 -266.924)" fill="#fff" fill-rule="evenodd"/>
        </g>
      </g>
    </g>
  </g>
</svg>
