<svg xmlns="http://www.w3.org/2000/svg" width="114" height="114" viewBox="0 0 114 114">
  <g id="Grupo_1072111" data-name="Grupo 1072111" transform="translate(-269 -958)">
    <circle id="Elipse_5614" data-name="Elipse 5614" cx="57" cy="57" r="57" transform="translate(269 958)" fill="#0a5e6b"/>
    <path id="Trazado_838703" data-name="Trazado 838703" d="M41.672,62.38a.992.992,0,0,1-.992.992h-26a.991.991,0,0,1,0-1.983h26A.992.992,0,0,1,41.672,62.38ZM14.68,27.674H28.854a.991.991,0,0,0,0-1.983H14.68a.991.991,0,1,0,0,1.983ZM69.009,65.389l-2.648,2.729a2.208,2.208,0,0,1-3.119.047l-7.336-7.118a2.213,2.213,0,0,1-.423-2.6l-.583-.566H52.945v4.8a.992.992,0,0,1-.992.992h-4.8v4.8a.992.992,0,0,1-.991.992H9.2a.992.992,0,0,1-.991-.992v-47.9a.992.992,0,0,1,.991-.991H14v-4.8A.992.992,0,0,1,15,13.795h4.8v-4.8A.992.992,0,0,1,20.791,8H51.76a.992.992,0,0,1,.7.29l5.988,5.988a.992.992,0,0,1,.29.7V54.151l.547.531a2.205,2.205,0,0,1,2.34.469l7.335,7.118A2.208,2.208,0,0,1,69.009,65.389ZM57.763,55.966l-2.688-2.608q-.438.539-.926,1.034l2.648,2.57ZM56.3,44.322A12.366,12.366,0,1,0,43.937,56.688,12.38,12.38,0,0,0,56.3,44.322ZM41.163,25.577h2.6l-2.6-2.6Zm5.795-5.795h2.6l-2.6-2.6Zm9.8,32.445V50.762q-.246.488-.527.954Zm-4-38.239h2.6l-2.6-2.6Zm-30.97-.193H45.966a.992.992,0,0,1,.7.29l5.988,5.988a.992.992,0,0,1,.29.7V33.162a14.442,14.442,0,0,1,3.812,4.72V15.971h-5a.992.992,0,0,1-.991-.991v-5H21.782Zm-5.795,5.795H40.171a.992.992,0,0,1,.7.29l5.988,5.988a.992.992,0,0,1,.29.7v3.767a14.254,14.254,0,0,1,3.812,1.478V21.765h-5a.992.992,0,0,1-.991-.991v-5H15.988Zm29.18,47.9V58.618c-.406.035-.816.053-1.231.053a14.329,14.329,0,0,1-3.366-.4H14.68a.991.991,0,1,1,0-1.983H36.028a14.468,14.468,0,0,1-3.379-3.117H14.68a.991.991,0,1,1,0-1.983H31.34a14.258,14.258,0,0,1-1.255-3.117H14.68a.991.991,0,1,1,0-1.983H29.7a14.42,14.42,0,0,1-.109-1.767c0-.455.022-.9.064-1.349H14.68a.992.992,0,0,1,0-1.983h15.3a14.239,14.239,0,0,1,1.142-3.117H14.68a.991.991,0,1,1,0-1.983H32.334a14.467,14.467,0,0,1,3.1-3.117H14.68a.991.991,0,1,1,0-1.983H39.162a14.284,14.284,0,0,1,4.775-.818c.415,0,.825.019,1.231.053V27.56h-5a.992.992,0,0,1-.991-.991v-5H10.193V67.49ZM50.962,61.7V56.829a14.253,14.253,0,0,1-3.812,1.478v3.387h3.812Zm16.619,2-7.335-7.118a.218.218,0,0,0-.155-.061h0a.218.218,0,0,0-.157.066l-2.649,2.729a.226.226,0,0,0,0,.315l7.336,7.118a.226.226,0,0,0,.315,0l2.648-2.729a.226.226,0,0,0,0-.315ZM54.412,44.322A10.476,10.476,0,1,1,43.937,33.846,10.487,10.487,0,0,1,54.412,44.322Zm-1.983,0a8.493,8.493,0,1,0-8.493,8.493A8.5,8.5,0,0,0,52.429,44.322Z" transform="translate(288.056 974.641)" fill="#fff"/>
  </g>
</svg>
